<svg xmlns="http://www.w3.org/2000/svg" width="640" height="480" viewBox="0 0 640 480" role="img" aria-labelledby="title desc"><title id="title">Cáo nhỏ</title><desc id="desc">Cáo màu cam ngồi bên hoa và cây.</desc><rect width="640" height="480" fill="#dff4e5"/><circle cx="537" cy="80" r="34" fill="#f7d68b"/><path d="M67 118Q61 89 89 88Q103 54 131 82Q170 73 169 116Z" fill="#fff9ec"/><path d="M0 399Q147 355 318 401T640 395V480H0Z" fill="#b6d69a"/><path d="M72 409v-27m-13 13h26M536 426v-27m-13 13h26" stroke="#6f9d76" stroke-width="6" stroke-linecap="round"/><circle cx="73" cy="372" r="11" fill="#e6a6a6"/><g fill="#493747" stroke-linejoin="round"><path d="M325 340Q450 190 490 305Q485 382 335 386" fill="#ef984d"/><path d="M457 258Q496 267 482 312L440 308Z" fill="#fff1d7"/><ellipse cx="285" cy="325" rx="76" ry="85" fill="#ed8a43"/><path d="M205 211L192 98L268 155L337 148L391 96L376 238Q309 320 205 211" fill="#ed8a43"/><path d="M215 208L285 235L370 204Q348 285 288 287Q235 280 215 208" fill="#fff1d7"/><circle cx="257" cy="196" r="7"/><circle cx="332" cy="193" r="7"/><path d="M281 234Q292 246 301 233" fill="none" stroke="#493747" stroke-width="8"/></g></svg>
